<mxfile host="app.diagrams.net" modified="2023-04-23T13:54:43.611Z" agent="Mozilla/5.0 (Windows NT 10.0; Win64; x64) AppleWebKit/537.36 (KHTML, like Gecko) Chrome/111.0.0.0 Safari/537.36 OPR/97.0.0.0" version="21.2.1" etag="vyr28pFwFc_vQe9EC7yT" type="github">
  <diagram name="Страница 1" id="_I6KeBnX1UCGj1wXSMbG">
    <mxGraphModel>
      <root>
        <mxCell id="0" />
        <mxCell id="1" parent="0" />
      </root>
    </mxGraphModel>
  </diagram>
</mxfile>
